<svg xmlns="http://www.w3.org/2000/svg" viewBox="0 0 379.41 319.27">
<path d="M373.41,0H107.6a6,6,0,0,0-6,6V33.6H69.2a6,6,0,0,0-6,6V56.71H19.76A19.78,19.78,0,0,0,0,76.47V258.7a19.78,19.78,0,0,0,19.76,19.76h111.6L125,307.27H104.59a6,6,0,0,0,0,12H210a6,6,0,0,0,0-12H189.66l-6.41-28.81h111.6a19.78,19.78,0,0,0,19.76-19.76V218.55H335a6,6,0,0,0,6-6V185h32.4a6,6,0,0,0,6-6V6a6,6,0,0,0-6-6ZM69.2,218.55h215v29.51H30.4V87.11H63.2V212.55a6,6,0,0,0,6,6Zm68,88.72,6.42-28.81H171l6.41,28.81ZM302.61,258.7a7.77,7.77,0,0,1-7.76,7.76H19.76A7.77,7.77,0,0,1,12,258.7V76.47a7.77,7.77,0,0,1,7.76-7.76H63.2v6.4H24.4a6,6,0,0,0-6,6v173a6,6,0,0,0,6,6H290.21a6,6,0,0,0,6-6V218.55h6.4ZM329,206.55H75.2V45.6h26.4V179a6,6,0,0,0,6,6H329Zm38.4-33.6H113.6V33.36H367.41Zm0-151.59H113.6V12H367.41Z"/><path d="M126,166.55h59.25a6,6,0,0,0,6-6V45.76a6,6,0,0,0-6-6H126a6,6,0,0,0-6,6V160.55a6,6,0,0,0,6,6Zm6-114.79h47.25V154.55H132Z"/><path d="M295.84,166.55h59.25a6,6,0,0,0,6-6V45.76a6,6,0,0,0-6-6H295.84a6,6,0,0,0-6,6V160.55a6,6,0,0,0,6,6Zm6-114.79h47.25V154.55H301.84Z"/>
<path d="M210.92,166.55h59.25a6,6,0,0,0,6-6V45.76a6,6,0,0,0-6-6H210.92a6,6,0,0,0-6,6V160.55a6,6,0,0,0,6,6Zm6-114.79h47.25V154.55H216.92Z"/>
</svg>
