<svg xmlns="http://www.w3.org/2000/svg" xmlns:xlink="http://www.w3.org/1999/xlink" viewBox="0 0 409.6 409.6">
<defs><style>.cls-1{fill:none;}.cls-2{clip-path:url(#clip-path);}</style>
<clipPath id="clip-path" transform="translate(0 -0.32)">
<rect class="cls-1" width="409.92" height="410.88"/></clipPath></defs>
<path d="M359.68,97.74a6,6,0,0,0,.85.05A7.64,7.64,0,0,0,366,95.54l41.4-41.39a7.68,7.68,0,0,0-4.73-13.08l-31-2.81-2.81-31a7.68,7.68,0,0,0-13.08-4.73L314.37,44a7.69,7.69,0,0,0-2.19,6.27l3.66,33L308.09,91A170.17,170.17,0,0,0,200.58,46.37V31.79a7.68,7.68,0,1,0-15.35,0V46.37c-88.11,3.91-159.06,74.87-163,163H7.68a7.68,7.68,0,1,0,0,15.35H22.25c3.92,88.11,74.87,159.06,163,163v14.57a7.68,7.68,0,1,0,15.35,0V387.67c88.1-3.92,159.06-74.87,163-163h14.58a7.68,7.68,0,1,0,0-15.35H363.55A170.1,170.1,0,0,0,319,101.83l7.75-7.75ZM355,25,357,46A7.68,7.68,0,0,0,363.9,53l21,1.91-27.2,27.2-26.87-3-3-26.87Zm-6.85,184.32H337.37a7.68,7.68,0,0,0,0,15.35h10.82c-3.89,79.64-68,143.72-147.61,147.61V361.48a7.68,7.68,0,0,0-15.35,0V372.3c-79.64-3.89-143.72-68-147.61-147.61H48.44a7.68,7.68,0,0,0,0-15.35H37.62c3.89-79.63,68-143.72,147.61-147.61V72.55a7.68,7.68,0,1,0,15.35,0V61.73a154.93,154.93,0,0,1,96.65,40.11l-23.1,23.1A123.14,123.14,0,1,0,285,135.8l23.11-23.11a154.92,154.92,0,0,1,40.1,96.65Zm-160.71,13.1a7.67,7.67,0,0,0,10.85,0L240,180.75a59.61,59.61,0,1,1-10.86-10.86l-41.7,41.7a7.67,7.67,0,0,0,0,10.85Zm5.43-80.28A74.95,74.95,0,1,0,251,169.82l23.15-23.15a107.6,107.6,0,1,1-10.86-10.86L240.1,159a74.54,74.54,0,0,0-47.19-16.8Z" transform="translate(0 -0.32)"/>
</svg>
