<svg xmlns="http://www.w3.org/2000/svg" viewBox="0 0 371.61 512">
<path d="M291.55,329.33a26,26,0,1,0,26,26A26.06,26.06,0,0,0,291.55,329.33Zm0,35.39a9.36,9.36,0,1,1,9.36-9.36A9.37,9.37,0,0,1,291.55,364.72Z" transform="translate(-70.2)"/>
<path d="M426.19,49.42,429.73,39A8.33,8.33,0,1,0,414,33.62l-3.54,10.43a34.19,34.19,0,0,0-35.12,23.07L342.6,163.33H332.53l-1.7-120.87a20.67,20.67,0,0,0-41.34,0l-1.71,120.87H268.7V66a8.26,8.26,0,0,0-1.42-4.64L228.6,3.69a8.33,8.33,0,0,0-13.84,0l-38.68,57.7A8.34,8.34,0,0,0,174.66,66v97.3H154.32a8.33,8.33,0,1,0,0,16.66H156v28.1H123.78A53.64,53.64,0,0,0,70.2,261.68V383.81a53.64,53.64,0,0,0,53.58,53.58H156v26.33A48.33,48.33,0,0,0,204.27,512H379.92a48.33,48.33,0,0,0,48.27-48.28V180h1.68a8.33,8.33,0,0,0,0-16.66h-15.1L440,89.11A34.25,34.25,0,0,0,426.19,49.42ZM156,389.64H126.78a8.84,8.84,0,0,1-8.83-8.83V264.67a8.84,8.84,0,0,1,8.83-8.82H156Zm0-150.46H126.78a25.53,25.53,0,0,0-25.5,25.49V380.81a25.52,25.52,0,0,0,25.5,25.49H156v14.43H123.78a37,37,0,0,1-36.92-36.92V261.68a37,37,0,0,1,36.92-36.92H156ZM372,128.5l33.13,11.25-8,23.58h-37ZM306.15,42.69a4,4,0,0,1,8,0l1.7,120.64H304.45ZM293.48,180a8,8,0,0,0,1.45.32v94.78a8.25,8.25,0,1,1-16.49,0V248.25a24.92,24.92,0,1,0-49.83,0V300.3a8.25,8.25,0,0,1-16.5,0V180ZM252,163.33H230V82a105.65,105.65,0,0,0,22-4.1v85.43Zm-30.35-140L230,35.66a28.83,28.83,0,0,1-8.29,1.22,28.43,28.43,0,0,1-8.29-1.22ZM203.87,49.86a44.83,44.83,0,0,0,35.62,0l8,12a89.56,89.56,0,0,1-51.69,0Zm-12.54,28a105.52,105.52,0,0,0,22,4.1v81.33h-22V77.9Zm220.2,385.82a31.65,31.65,0,0,1-31.61,31.61H204.27a31.65,31.65,0,0,1-31.61-31.61V180h22.79V300.3a24.92,24.92,0,0,0,49.83,0V248.25a8.25,8.25,0,1,1,16.49,0V275.1a24.92,24.92,0,0,0,49.83,0V180.39l99.93-.4V463.72Zm12.68-380L410.54,124,377.4,112.72l13.67-40.23a17.5,17.5,0,0,1,22.19-10.95A17.54,17.54,0,0,1,424.21,83.75Z" transform="translate(-70.2)"/>
</svg>
